<mxfile host="drawio-plugin" modified="2022-11-25T12:26:56.062Z" agent="5.0 (Windows NT 6.2; Win64; x64) AppleWebKit/537.36 (KHTML, like Gecko) Chrome/89.0.4389.114 Safari/537.36" version="20.5.3" etag="iJBzQp76UZvAzQ90cakx" type="embed"><diagram id="JVinwqoWf2as9HH9mDvl" name="Page-1"><mxGraphModel dx="902" dy="868" grid="1" gridSize="10" guides="1" tooltips="1" connect="1" arrows="1" fold="1" page="1" pageScale="1" pageWidth="850" pageHeight="1100" math="0" shadow="0"><root><mxCell id="0"/><mxCell id="1" parent="0"/><mxCell id="2" value="Login&lt;br&gt;/login" style="rounded=0;whiteSpace=wrap;html=1;" vertex="1" parent="1"><mxGeometry x="320" y="220" width="120" height="40" as="geometry"/></mxCell><mxCell id="3" value="Register&lt;br&gt;/register" style="rounded=0;whiteSpace=wrap;html=1;" vertex="1" parent="1"><mxGeometry x="320" y="170" width="120" height="40" as="geometry"/></mxCell><mxCell id="4" value="Home&lt;br&gt;/" style="rounded=0;whiteSpace=wrap;html=1;" vertex="1" parent="1"><mxGeometry x="200" y="40" width="120" height="40" as="geometry"/></mxCell><mxCell id="5" value="#Error&lt;br&gt;/auth" style="rounded=0;whiteSpace=wrap;html=1;" vertex="1" parent="1"><mxGeometry x="320" y="120" width="120" height="40" as="geometry"/></mxCell><mxCell id="6" value="Login&lt;br&gt;/forgotten-pw" style="rounded=0;whiteSpace=wrap;html=1;" vertex="1" parent="1"><mxGeometry x="320" y="270" width="120" height="40" as="geometry"/></mxCell><mxCell id="8" value="Main-shop&lt;br&gt;/shop" style="rounded=0;whiteSpace=wrap;html=1;" vertex="1" parent="1"><mxGeometry x="160" y="120" width="120" height="40" as="geometry"/></mxCell><mxCell id="9" value="Basket&lt;br&gt;/basket" style="rounded=0;whiteSpace=wrap;html=1;" vertex="1" parent="1"><mxGeometry x="160" y="170" width="120" height="40" as="geometry"/></mxCell><mxCell id="10" value="Buy&lt;br&gt;/buy" style="rounded=0;whiteSpace=wrap;html=1;" vertex="1" parent="1"><mxGeometry x="160" y="220" width="120" height="40" as="geometry"/></mxCell><mxCell id="11" value="Misc&lt;br&gt;/misc" style="rounded=0;whiteSpace=wrap;html=1;" vertex="1" parent="1"><mxGeometry x="480" y="120" width="120" height="40" as="geometry"/></mxCell><mxCell id="12" value="404&lt;br&gt;/error/404" style="rounded=0;whiteSpace=wrap;html=1;" vertex="1" parent="1"><mxGeometry x="480" y="170" width="120" height="40" as="geometry"/></mxCell><mxCell id="13" value="403&lt;br&gt;/error/403" style="rounded=0;whiteSpace=wrap;html=1;" vertex="1" parent="1"><mxGeometry x="480" y="220" width="120" height="40" as="geometry"/></mxCell></root></mxGraphModel></diagram></mxfile>